<?xml version="1.0" encoding="utf-8"?>
<!-- Generator: Adobe Illustrator 27.0.0, SVG Export Plug-In . SVG Version: 6.00 Build 0)  -->
<svg version="1.1" id="Layer_1" xmlns="http://www.w3.org/2000/svg" xmlns:xlink="http://www.w3.org/1999/xlink" x="0px" y="0px"
	 viewBox="0 0 638.84 628.89" style="enable-background:new 0 0 638.84 628.89;" xml:space="preserve">
<style type="text/css">
	.st0{display:none;}
	.st1{display:inline;}
	.st2{fill:#E20000;}
</style>
<g class="st0">
	<path class="st1" d="M613.98,316.55c-19.05,5.28-38.22,10.18-57.13,15.93c-21.15,6.43-42.06,13.64-64.79,21.07
		c-19.9-12.73-40.24-25.73-63.88-40.85c21.4-16.98,42.55-28.41,63.79-42.31c30.22,9.83,60.54,19.92,91.01,29.48
		c10.12,3.18,20.66,5.01,31,7.47C613.98,310.41,613.98,313.48,613.98,316.55z"/>
	<path class="st1" d="M314.77,606.75c-5.27-19.07-10.17-38.25-15.92-57.17c-6.43-21.16-13.63-42.08-21.06-64.83
		c12.72-19.92,25.72-40.27,40.79-63.87c17.38,21.1,27.81,42.96,42.55,63.07c-10.06,30.95-20.14,61.28-29.69,91.78
		c-3.17,10.12-5.01,20.67-7.46,31.02C320.91,606.75,317.84,606.75,314.77,606.75z"/>
	<path class="st1" d="M456.91,348.61c-4.38,42.98-60.01,97.4-101.23,100.31c-10.95-15.58-22.63-32.19-36.36-51.73
		c-13.21,19.01-24.76,35.63-35.87,51.6c-48.53-7.13-93.43-50.74-102.31-99.86c16.02-11.09,32.84-22.73,52.92-36.63
		c-18.95-13.45-35.96-25.53-52.34-37.15c1.35-44.2,49.99-94.53,100-103.18c11.41,16.82,23.29,34.34,37.31,55.01
		c13.82-19.83,25.82-37.06,37.5-53.84c36.26-1.87,97.23,55.54,101.33,101.3c-15.77,11.08-32.96,23.16-53.1,37.32
		C423.36,324.9,439.86,336.56,456.91,348.61z"/>
	<path class="st1" d="M318.92,203.09c-14.83-22.85-27.58-42.5-41.18-63.46c12.87-39.71,25.75-79.46,38.9-120.03
		c10.51,11.77,34.43,79.78,43.1,121.22c-9.15,14.58-18.82,30.13-28.68,45.57C328.22,190.84,324.87,194.96,318.92,203.09z"/>
	<path class="st1" d="M147.01,270.14c21.33,13.9,40.92,26.67,64.24,41.87c-23.52,15.24-43.68,28.3-64.3,41.66
		c-40.31-13.18-79.82-26.09-119.32-39.01c-0.07-1.75-0.14-3.51-0.21-5.26C66.79,296.47,106.17,283.54,147.01,270.14z"/>
	<path class="st1" d="M499.32,496.61c-27.89-14.43-55.78-28.86-85.82-44.4c16.56-15.26,30.39-28,46.29-42.64
		c16.84,25.13,29.95,54.13,43.58,82.84C502.02,493.82,500.67,495.21,499.32,496.61z"/>
	<path class="st1" d="M135.01,491.23c14.22-27.33,28.43-54.67,44.05-84.69c15.32,16.73,28.34,30.93,43.26,47.21
		c-27.37,14.16-55.1,28.51-82.84,42.85C137.98,494.81,136.49,493.02,135.01,491.23z"/>
	<path class="st1" d="M503.77,132.51c-13.94,26.94-27.87,53.88-42.61,82.37c-15.02-15.5-28.45-29.37-43.81-45.23
		c27.4-14.17,54.64-28.25,81.88-42.33C500.75,129.05,502.26,130.78,503.77,132.51z"/>
	<path class="st1" d="M175.35,210.23c-12.35-23.75-26.33-50.66-40.81-78.51c17.13,0.19,52.59,16.86,83.62,38.11
		C204.35,182.87,190.35,196.08,175.35,210.23z"/>
</g>
<g>
	<path class="st2" d="M327.97,454.96c-28.79,0.73-48.96-7.69-66.35-22.46c-20.54-17.45-40.88-35.2-60.39-53.79
		c-15.19-14.47-32.21-24.4-53.04-26.62c-20.58-2.19-32.43-13.53-40.31-32.14c-29.21-68.98-28.6-80.03,20.11-137.66
		c38.55-45.6,78.37-90.32,128.34-124.14c50.96-34.49,81.76-33.91,131.84,2.65c56.41,41.18,104.48,90.81,146.88,146.26
		c18.72,24.48,22.84,50.1,12.41,78.59c-3.64,9.94-7.79,19.7-11.01,29.77c-7.26,22.7-22.03,33.87-46.18,37.04
		c-13.39,1.76-27.48,8.94-38.3,17.44c-25.7,20.22-49.51,42.82-74.32,64.18C359.38,449.83,345.7,454.75,327.97,454.96z
		 M322.53,284.84c-36.96,0.6-65.28,30.04-64.64,67.19c0.61,35.43,29.86,64.99,64.32,65c35.82,0.01,66.74-30.65,66.78-66.21
		C389.04,314.66,358.41,284.25,322.53,284.84z M220.11,265.53c-0.55-15.27-15.74-29.02-30.65-27.73
		c-14.43,1.25-26.19,14.69-25.73,29.43c0.46,14.78,13.08,27.53,27.46,27.76C206.37,295.23,220.66,280.67,220.11,265.53z
		 M479.64,265.84c-0.37-14.86-16.09-29.24-30.65-28.04c-13.89,1.15-26.98,15.44-26.67,29.13c0.34,14.97,15.95,29.28,30.6,28.04
		C466.74,293.8,479.98,279.36,479.64,265.84z"/>
	<path class="st2" d="M163.16,587.85c-8.71-2.65-14.67-3.47-19.65-6.13c-32.48-17.33-64-36.09-80.96-70.97
		C47,478.79,31.02,446.96,17.37,414.18c-11.45-27.51,6.28-78.98,31.34-94.89c4.46-2.83,13.2-2.63,18.13-0.17
		c7.53,3.76,13.65,10.51,20.06,16.33c20.88,18.98,42.48,35.84,72.52,38.17c7.91,0.61,16.54,5.85,22.81,11.3
		c33.32,28.97,66.93,57.73,98.58,88.48c21.75,21.13,60.21,20.52,81.16-0.41c29.83-29.8,62.17-57.15,94.28-84.57
		c7.73-6.6,18.45-12.22,28.35-13.32c31.93-3.55,54.34-22.47,76.66-42.57c28.32-25.51,35.71-23.78,51.06,10.79
		c12.08,27.2,17.8,54.28,4.59,83.3c-9.14,20.07-16.68,41.01-23.27,62.08c-13.43,42.95-47.99,66.26-82.23,89.46
		c-19.98,13.54-41.48,7.22-60.04-4.07c-20.48-12.46-39.88-26.93-58.61-41.96c-43.5-34.91-92.62-36.42-137.51-2.91
		c-18.51,13.82-36.24,28.78-55.48,41.48C188.03,578.44,174.09,582.86,163.16,587.85z M245.08,479.31
		c-0.2-29.6-21.43-51.81-50.14-52.47c-29.64-0.68-52.81,22.6-52.7,52.94c0.11,28.26,22.9,52.15,50.47,52.88
		C221.99,533.45,245.29,509.72,245.08,479.31z M448.61,532.69c29.07-0.13,52.86-24.98,52.12-54.42
		c-0.72-28.49-24.17-51.7-51.91-51.38c-29.76,0.34-52.78,24.23-52.09,54.07C397.37,508.85,421.41,532.82,448.61,532.69z
		 M579.54,421.58c12.07-0.52,22.59-15.03,21.26-29.32c-1.3-13.86-11.91-23.93-24.27-23.01c-13.04,0.97-26,13.9-26.17,26.12
		C550.17,408.01,565.94,422.16,579.54,421.58z M93.67,395.5c-0.28-13.51-14.89-27.04-28.52-26.41
		c-12.07,0.56-20.93,11.62-20.78,25.94c0.16,15.53,10.67,27.3,23.56,26.4C81.26,420.5,93.92,407.75,93.67,395.5z"/>
</g>
</svg>
